<svg width="112" height="113" viewBox="0 0 112 113" fill="none" xmlns="http://www.w3.org/2000/svg">
<path d="M53.12 47.2C58.64 47.2 63.32 48.32 67.16 50.56C71 52.8 73.68 56.12 75.2 60.52C76.8 64.84 76.96 70.16 75.68 76.48L68.6 112H53.6L60.56 76.84C61.6 71.64 61.12 67.6 59.12 64.72C57.12 61.76 53.48 60.28 48.2 60.28C42.68 60.28 38.12 61.8 34.52 64.84C30.92 67.88 28.48 72.52 27.2 78.76L20.48 112H5.48L18.2 47.92H32.48L28.88 66.16L26.48 60.4C29.52 55.84 33.32 52.52 37.88 50.44C42.52 48.28 47.6 47.2 53.12 47.2Z" fill="#FC6464"/>
<path d="M91.6 58C96.2 58 100.1 58.9333 103.3 60.8C106.5 62.6667 108.733 65.4333 110 69.1C111.333 72.7 111.467 77.1333 110.4 82.4L104.5 112H92L97.8 82.7C98.6667 78.3667 98.2667 75 96.6 72.6C94.9333 70.1333 91.9 68.9 87.5 68.9C82.9 68.9 79.1 70.1667 76.1 72.7C73.1 75.2333 71.0667 79.1 70 84.3L64.4 112H51.9L62.5 58.6H74.4L71.4 73.8L69.4 69C71.9333 65.2 75.1 62.4333 78.9 60.7C82.7667 58.9 87 58 91.6 58Z" fill="#FC6464"/>
<ellipse cx="18.1424" cy="56.2668" rx="13.1515" ry="57.101" transform="rotate(11.5541 18.1424 56.2668)" fill="#FC6464"/>
</svg>
